# xmcd CD database file
#
# Track frame offsets:
#	150
#	16243
#	28957
#	42641
#	64022
#	80335
#	91197
#	108678
#	122955
#	139517
#	152698
#	169836
#
# Disc length: 2438 seconds
#
# Revision: 0
# Processed by: cddbd v1.5.2PL0 Copyright (c) Steve Scherf et al.
# Submitted via: CDex 1.70beta2
#
DISCID=9d09840c
DTITLE=Chesnutt Mark - Duets (Fan Club Deluxe)
DYEAR=2017
DGENRE=Country
TTITLE0=Make Memories with Me (w. Lee Ann Womack
TTITLE1=Talking To Hank (w. George Jones)
TTITLE2=Stay All Night (w.Ray Benson) 
TTITLE3=A Couple More Years (w. Amber Digby)
TTITLE4=A Good Way To Get On My Bad Side (w. Tracy Byrd
TTITLE5=Rockin The Roadhouse Down (w. Tracy Lawrence and Joe Diffie)
TTITLE6=Rainy Day Woman (w. Waylon Jennings)
TTITLE7=Good Ones And Bad Ones (w. George Jones)
TTITLE8=Political Incorrectness (w. Kevin Fowler) 
TTITLE9=This Side Of The Door (w. Gene Watson)
TTITLE10=When The Grass Grows Over Me (w. George Jones)
TTITLE11=Honky Tonk Song (w. Tom Aster) 
EXTD=YEAR: 2017
EXTT0=
EXTT1=
EXTT2=
EXTT3=
EXTT4=
EXTT5=
EXTT6=
EXTT7=
EXTT8=
EXTT9=
EXTT10=
EXTT11=
PLAYORDER=
